<svg width="111" height="34" viewBox="0 0 111 34" fill="none" xmlns="http://www.w3.org/2000/svg">
<g clip-path="url(#clip0_2697_1995)">
<path d="M5.36305 15.002C4.88309 15.5131 4.55312 15.9039 4.22315 16.2647C3.62321 15.6934 3.05326 15.2124 2.54331 14.6712C0.0235466 11.9354 0.233527 8.29752 3.14326 5.83221C5.42304 3.90807 7.79282 2.10418 10.1326 0.240167C10.1926 0.180038 10.2826 0.149973 10.4026 0.0898438C10.5826 0.210103 10.7625 0.330362 10.9125 0.450621C13.0723 2.10418 15.2321 3.78781 17.3619 5.47143C20.7816 8.20732 20.9916 12.0857 17.8419 15.1523C16.0721 16.896 14.2722 18.6398 12.4724 20.3535C11.6025 21.1953 10.6726 21.977 9.77264 22.7887C9.83263 22.909 9.92262 23.0292 9.98262 23.1495C10.9425 23.1495 11.8724 23.2096 12.8324 23.1194C14.2422 22.9992 14.6622 24.1416 15.5921 24.9233C12.0824 24.9233 8.78273 24.9233 5.39305 24.9233C5.51303 24.7429 5.54303 24.6527 5.60303 24.5926C7.43286 22.8188 9.26268 21.045 11.0925 19.2411C13.1023 17.2568 15.1121 15.3026 17.062 13.2281C18.6218 11.5445 18.6818 9.31972 17.032 7.78642C14.9622 5.86227 12.6824 4.20871 10.4926 2.40483C8.57275 3.90807 6.71292 5.35117 4.8531 6.79428C4.49313 7.09493 4.13316 7.39558 3.80319 7.72629C2.21334 9.43998 2.18335 11.4844 3.68321 13.2281C4.22316 13.7994 4.7631 14.3706 5.36305 15.002Z" fill="#FF8C2A"/>
<path d="M10.3729 31.4769C10.9428 31.0259 11.4828 30.605 12.0227 30.1841C13.4026 29.1018 14.7525 28.0195 16.1324 26.9672C18.6821 24.9529 18.8321 22.4274 16.5523 20.1425C16.1624 19.7517 15.6824 19.421 15.1425 18.97C15.7424 18.4288 16.1624 18.038 16.6123 17.6772C20.422 20.383 21.3819 24.532 18.2022 27.5986C15.8324 29.8835 13.0726 31.8076 10.4329 33.9422C9.77295 33.4311 9.17301 32.9501 8.57307 32.4691C6.80323 31.056 5.0334 29.673 3.29356 28.2299C1.7337 26.9371 0.743795 25.3136 0.833787 23.2091C0.893781 21.8562 1.28374 20.6536 2.30365 19.6615C4.43345 17.5569 6.53326 15.4223 8.63306 13.2877C9.41299 12.5061 10.1329 11.7244 11.0628 10.7623C10.0729 10.7623 9.263 10.6721 8.48307 10.7924C7.01321 11.0329 6.26328 10.0708 5.33337 9.01855C8.78305 9.01855 12.0827 9.01855 15.5024 9.01855C15.2924 9.25907 15.1425 9.43946 14.9625 9.61985C13.0427 11.4839 11.0628 13.3479 9.11302 15.272C7.55316 16.8053 6.0233 18.3386 4.49345 19.902C4.01349 20.383 3.47354 20.834 3.20357 21.4353C2.21366 23.5098 2.45364 25.1032 4.16348 26.5463C6.17329 28.26 8.27309 29.8234 10.3729 31.4769Z" fill="#FF8C2A"/>
<path d="M30.3206 11.3338C30.3206 11.3639 30.2906 11.424 30.2606 11.4841C30.2006 11.5743 30.1706 11.6645 30.1106 11.7848C30.0506 11.9051 30.0206 11.9952 29.9606 12.1155L27.1709 17.6775H30.3806V19.782H24.6811V17.2265C24.6811 17.1964 24.7111 17.1363 24.7411 17.0461C24.7711 16.9559 24.8311 16.8357 24.8911 16.7455C24.9511 16.6252 24.9811 16.535 25.0411 16.4148C25.101 16.3246 25.131 16.2644 25.131 16.2344L27.8308 10.8528H24.6211V8.77832H30.3206V11.3338Z" fill="black"/>
<path d="M31.1904 8.80859H33.6202V19.8123H31.1904V8.80859Z" fill="black"/>
<path d="M38.3902 17.8881H36.7103L36.5003 19.8123H34.3105L35.6904 8.80859H39.4101L40.7599 19.8123H38.6001L38.3902 17.8881ZM37.5802 10.9733H37.5202C37.4303 11.8451 37.3403 12.717 37.2203 13.5588C37.1003 14.4006 37.0103 15.2725 36.8903 16.1143V16.1444H38.1802V16.1143C38.0602 15.2424 37.9702 14.4006 37.8502 13.5588C37.7602 12.717 37.6702 11.8451 37.5802 10.9733Z" fill="black"/>
<path d="M45.4695 8.80859C46.2494 8.80859 46.8494 8.98898 47.2994 9.34976C47.7193 9.71054 47.9293 10.2818 47.9293 11.0634V13.3183C47.9293 13.4987 47.8993 13.6791 47.8693 13.8895C47.8393 14.1 47.7793 14.2804 47.6893 14.4908C47.5993 14.7013 47.5093 14.8817 47.3893 15.032C47.2694 15.1823 47.0894 15.3026 46.9094 15.3928C47.0894 15.4529 47.2394 15.5431 47.3893 15.6634C47.5093 15.7836 47.6293 15.9039 47.6893 16.0843C47.7793 16.2346 47.8393 16.415 47.8693 16.5954C47.8993 16.7758 47.9293 16.9561 47.9293 17.1365V19.0005C47.9293 19.0907 47.9293 19.211 47.9593 19.3613C47.9893 19.5116 48.0193 19.6018 48.0793 19.662L48.1693 19.7822H45.7995L45.7695 19.7522C45.7395 19.7221 45.6795 19.662 45.6795 19.6018C45.6495 19.5417 45.6195 19.4515 45.6195 19.3914C45.5895 19.3012 45.5895 19.2411 45.5895 19.1509C45.5895 19.0907 45.5895 19.0306 45.5895 18.9705V17.347C45.5895 17.0764 45.5595 16.8058 45.4695 16.5954C45.3795 16.3849 45.1695 16.2647 44.8696 16.2647H43.9997V19.7822H41.6299V8.80859H45.4695ZM43.9697 10.853V14.4307H44.9296C45.1696 14.4307 45.3495 14.3104 45.4395 14.1C45.5295 13.8895 45.5595 13.649 45.5595 13.4085V11.6948C45.5595 11.4242 45.5295 11.2138 45.4395 11.0634C45.3795 10.9131 45.1995 10.853 44.8996 10.853H43.9697Z" fill="black"/>
<path d="M52.729 17.8881H51.0492L50.8392 19.8123H48.6494L50.0293 8.80859H53.7489L55.0988 19.8123H52.909L52.729 17.8881ZM51.9191 10.9733H51.8591C51.7691 11.8451 51.6791 12.717 51.5591 13.5588C51.4392 14.4006 51.3492 15.2725 51.2292 16.1143V16.1444H52.5191V16.1143C52.3991 15.2424 52.3091 14.4006 52.1891 13.5588C52.0991 12.717 52.0091 11.8451 51.9191 10.9733Z" fill="black"/>
<path d="M54.8887 10.853V8.80859H60.8581V10.853H59.0583V19.8123H56.6885V10.853H54.8887Z" fill="black"/>
<path d="M69.5871 15.3326C69.4971 15.6634 69.3771 15.9339 69.1671 16.1444C68.9871 16.3548 68.7171 16.5352 68.4172 16.6254C68.1172 16.7457 67.7272 16.7758 67.2473 16.7758H65.9274V19.7822H63.5576V8.80859H67.2773C68.0272 8.80859 68.6271 8.98898 69.0771 9.34976C69.4971 9.71054 69.737 10.2818 69.737 11.0634V14.2202C69.707 14.6412 69.6471 15.0019 69.5871 15.3326ZM65.9274 14.7614H66.7973C67.0373 14.7614 67.1873 14.6712 67.2473 14.5209C67.3073 14.3706 67.3373 14.1601 67.3373 13.9497V11.6948C67.3373 11.4543 67.3073 11.2739 67.2473 11.0935C67.1873 10.9131 67.0373 10.853 66.7973 10.853H65.9274V14.7614Z" fill="black"/>
<path d="M70.4873 19.8123V8.80859H72.9471V17.7679H75.7068V19.8123H70.4873Z" fill="black"/>
<path d="M80.356 17.8881H78.6761L78.4662 19.8123H76.2764L77.6562 8.80859H81.3759L82.7258 19.8123H80.536L80.356 17.8881ZM79.5461 10.9733H79.4861C79.3961 11.8451 79.3061 12.717 79.1861 13.5588C79.0661 14.4006 78.9761 15.2725 78.8561 16.1143V16.1444H80.146V16.1143C80.026 15.2424 79.936 14.4006 79.816 13.5588C79.726 12.717 79.6361 11.8451 79.5461 10.9733Z" fill="black"/>
<path d="M87.6756 15.9941V15.964C87.6756 15.9339 87.6456 15.8437 87.6456 15.7536V8.80859H89.5954V19.8123H86.5957L85.4558 12.6268L85.3358 12.6569V12.6869C85.3358 12.717 85.3658 12.7471 85.3658 12.7771V19.8424H83.416V8.80859H86.4457L87.5856 15.9941H87.6756Z" fill="black"/>
<path d="M94.6949 15.9941V15.964C94.6949 15.9339 94.6649 15.8437 94.6649 15.7536V8.80859H96.6147V19.8123H93.585L92.4451 12.6268L92.3251 12.6569V12.6869C92.3251 12.717 92.3551 12.7471 92.3551 12.7771V19.8424H90.4053V8.80859H93.435L94.5749 15.9941H94.6949Z" fill="black"/>
<path d="M99.8546 13.198H102.494V15.0621H99.8546V17.7378H102.674V19.7822H97.4248V8.80859H102.674V10.853H99.8546V13.198Z" fill="black"/>
<path d="M107.323 8.80859C108.103 8.80859 108.703 8.98898 109.153 9.34976C109.573 9.71054 109.783 10.2818 109.783 11.0634V13.3183C109.783 13.4987 109.753 13.6791 109.723 13.8895C109.693 14.1 109.633 14.2804 109.543 14.4908C109.453 14.7013 109.363 14.8817 109.243 15.032C109.123 15.1823 108.943 15.3026 108.763 15.3928C108.943 15.4529 109.093 15.5431 109.243 15.6634C109.363 15.7836 109.483 15.9039 109.543 16.0843C109.633 16.2346 109.693 16.415 109.723 16.5954C109.753 16.7758 109.783 16.9561 109.783 17.1365V19.0005C109.783 19.0907 109.783 19.211 109.813 19.3613C109.843 19.5116 109.873 19.6018 109.933 19.662L110.023 19.7822H107.653L107.623 19.7522C107.593 19.7221 107.533 19.662 107.533 19.6018C107.503 19.5417 107.473 19.4515 107.473 19.3914C107.443 19.3012 107.443 19.2411 107.443 19.1509C107.443 19.0907 107.443 19.0306 107.443 18.9705V17.347C107.443 17.0764 107.413 16.8058 107.323 16.5954C107.233 16.3849 107.023 16.2647 106.723 16.2647H105.853V19.7822H103.483V8.80859H107.323ZM105.823 10.853V14.4307H106.783C107.023 14.4307 107.203 14.3104 107.293 14.1C107.383 13.8895 107.413 13.649 107.413 13.4085V11.6948C107.413 11.4242 107.383 11.2138 107.293 11.0634C107.233 10.9131 107.053 10.853 106.753 10.853H105.823Z" fill="black"/>
<path d="M25.4317 25.615H27.8915V25.9757H25.0117V21.917H27.8015V22.2778H25.4317V25.615ZM25.3717 23.7509H27.5315V24.1117H25.3717V23.7509Z" fill="black"/>
<path d="M32.6314 22.9092C32.8713 22.9092 33.0813 22.9693 33.2913 23.0595C33.4713 23.1497 33.6213 23.3 33.7113 23.4804C33.8012 23.6608 33.8612 23.9314 33.8612 24.202V25.9758H33.4413V24.232C33.4413 23.9013 33.3513 23.6608 33.2013 23.5105C33.0513 23.3602 32.8413 23.27 32.5414 23.27C32.3314 23.27 32.1514 23.3 32.0014 23.3902C31.8514 23.4804 31.7314 23.6007 31.6415 23.7811C31.5515 23.9314 31.5215 24.1418 31.5215 24.3824V26.0058H31.1015V24.2621C31.1015 23.9314 31.0115 23.6909 30.8615 23.5405C30.7115 23.3902 30.5016 23.3 30.2016 23.3C29.9916 23.3 29.8116 23.3301 29.6616 23.4203C29.5116 23.5105 29.3917 23.6307 29.3017 23.8111C29.2117 23.9614 29.1817 24.1719 29.1817 24.4124V26.0359H28.7617V22.9392H29.1517V23.7811L29.0917 23.6307C29.1817 23.4203 29.3317 23.2399 29.5416 23.1196C29.7516 22.9994 29.9916 22.9392 30.2916 22.9392C30.5915 22.9392 30.8315 22.9994 31.0415 23.1497C31.2515 23.3 31.4015 23.5105 31.4615 23.8111L31.3115 23.751C31.4015 23.5105 31.5515 23.3 31.7914 23.1497C32.0314 22.9693 32.3014 22.9092 32.6314 22.9092Z" fill="black"/>
<path d="M34.9707 26.0061V21.6768H35.3907V23.8414L35.3307 24.4728L35.3607 25.1041V26.0361H34.9707V26.0061ZM36.5606 26.0361C36.2906 26.0361 36.0506 25.976 35.8406 25.8558C35.6306 25.7355 35.4507 25.5551 35.3307 25.3146C35.2107 25.0741 35.1507 24.8035 35.1507 24.4728C35.1507 24.1421 35.2107 23.8414 35.3307 23.631C35.4507 23.4205 35.6306 23.2101 35.8406 23.0898C36.0506 22.9695 36.2906 22.9094 36.5606 22.9094C36.8605 22.9094 37.1005 22.9695 37.3405 23.0898C37.5805 23.2101 37.7604 23.3904 37.8804 23.631C38.0004 23.8715 38.0904 24.1421 38.0904 24.4427C38.0904 24.7434 38.0304 25.0139 37.8804 25.2545C37.7604 25.495 37.5805 25.6754 37.3405 25.7956C37.1005 25.9159 36.8605 26.0361 36.5606 26.0361ZM36.5306 25.6453C36.7405 25.6453 36.9505 25.5852 37.1005 25.495C37.2805 25.4048 37.4005 25.2545 37.5205 25.0741C37.6105 24.8937 37.6705 24.6832 37.6705 24.4427C37.6705 24.2022 37.6105 23.9917 37.5205 23.8114C37.4305 23.631 37.2805 23.4806 37.1005 23.3904C36.9205 23.3003 36.7405 23.2401 36.5306 23.2401C36.3206 23.2401 36.1106 23.3003 35.9606 23.3904C35.8106 23.4806 35.6606 23.631 35.5407 23.8114C35.4507 23.9917 35.3907 24.2022 35.3907 24.4427C35.3907 24.6832 35.4507 24.8937 35.5407 25.0741C35.6306 25.2545 35.7806 25.4048 35.9606 25.495C36.1406 25.5852 36.3206 25.6453 36.5306 25.6453Z" fill="black"/>
<path d="M39.7701 26.0357C39.5301 26.0357 39.3501 26.0056 39.1701 25.9154C38.9901 25.8253 38.8701 25.7351 38.7801 25.6148C38.6902 25.4945 38.6602 25.3142 38.6602 25.1638C38.6602 25.0135 38.6902 24.8632 38.7801 24.7429C38.8701 24.6227 38.9901 24.5024 39.1401 24.4423C39.3201 24.3521 39.5301 24.322 39.83 24.322H40.88V24.6227H39.83C39.5301 24.6227 39.3201 24.6828 39.2301 24.773C39.1101 24.8632 39.0501 25.0135 39.0501 25.1638C39.0501 25.3442 39.1101 25.4645 39.2601 25.5847C39.4101 25.6749 39.5901 25.7351 39.83 25.7351C40.07 25.7351 40.25 25.6749 40.43 25.5847C40.61 25.4645 40.73 25.3142 40.79 25.1338L40.88 25.4344C40.79 25.6449 40.67 25.7952 40.49 25.9154C40.31 25.9756 40.07 26.0357 39.7701 26.0357ZM40.82 26.0056V25.3142L40.79 25.1939V24.0514C40.79 23.7808 40.73 23.6005 40.58 23.4501C40.43 23.2998 40.22 23.2397 39.92 23.2397C39.7101 23.2397 39.5301 23.2697 39.3501 23.3299C39.1701 23.39 39.0201 23.4802 38.9001 23.6005L38.7202 23.2998C38.8701 23.1796 39.0501 23.0593 39.2901 22.9992C39.5001 22.939 39.7401 22.8789 39.98 22.8789C40.37 22.8789 40.67 22.9691 40.9099 23.1796C41.1199 23.39 41.2399 23.6606 41.2399 24.0815V25.9756H40.82V26.0056Z" fill="black"/>
<path d="M42.3496 26.0058V22.9392H42.7396V23.7811L42.7096 23.6307C42.7996 23.3902 42.9496 23.2098 43.1295 23.0896C43.3095 22.9693 43.5795 22.9092 43.8795 22.9092V23.3C43.8495 23.3 43.8495 23.3 43.8195 23.3C43.7895 23.3 43.7895 23.3 43.7595 23.3C43.4295 23.3 43.1895 23.3902 43.0095 23.6007C42.8296 23.8111 42.7396 24.0817 42.7396 24.4425V26.0058H42.3496Z" fill="black"/>
<path d="M44.6299 26.0061V21.6768H45.0498V26.0061H44.6299ZM44.9598 25.1943V24.6532L46.8497 22.9094H47.3596L46.0098 24.2022L45.7998 24.4126L44.9598 25.1943ZM46.9997 26.0061L45.7398 24.4126L46.0098 24.0819L47.5096 26.0061H46.9997Z" fill="black"/>
<path d="M50.8997 26.0359C50.5997 26.0359 50.3297 25.9758 50.1198 25.8255C49.8798 25.7052 49.6998 25.4947 49.5498 25.2843C49.3998 25.0438 49.3398 24.7732 49.3398 24.4725C49.3398 24.1719 49.3998 23.9013 49.5498 23.6608C49.6998 23.4203 49.8798 23.2399 50.0898 23.1196C50.3298 22.9994 50.5997 22.9092 50.8997 22.9092C51.1997 22.9092 51.4696 22.9693 51.7096 23.1196C51.9496 23.2399 52.1296 23.4203 52.2496 23.6608C52.3696 23.9013 52.4596 24.1719 52.4596 24.4725C52.4596 24.7732 52.3996 25.0438 52.2496 25.2843C52.1296 25.5248 51.9196 25.7052 51.6796 25.8255C51.4396 25.9457 51.1997 26.0359 50.8997 26.0359ZM50.8997 25.6451C51.1097 25.6451 51.3197 25.5849 51.4996 25.4947C51.6796 25.4046 51.7996 25.2542 51.8896 25.0738C51.9796 24.8935 52.0396 24.683 52.0396 24.4425C52.0396 24.202 51.9796 23.9915 51.8896 23.8111C51.7996 23.6307 51.6496 23.4804 51.4996 23.3902C51.3197 23.3 51.1397 23.2399 50.9297 23.2399C50.7197 23.2399 50.5097 23.3 50.3597 23.3902C50.1798 23.4804 50.0598 23.6307 49.9398 23.8111C49.8198 23.9915 49.7898 24.202 49.7898 24.4425C49.7898 24.683 49.8498 24.8935 49.9398 25.0738C50.0298 25.2542 50.1798 25.4046 50.3597 25.4947C50.4797 25.615 50.6897 25.6451 50.8997 25.6451Z" fill="black"/>
<path d="M54.8587 22.9092C55.0987 22.9092 55.3386 22.9693 55.5186 23.0595C55.6986 23.1497 55.8486 23.3 55.9686 23.4804C56.0886 23.6608 56.1186 23.9314 56.1186 24.202V25.9758H55.6986V24.232C55.6986 23.9013 55.6086 23.6608 55.4586 23.5105C55.3086 23.3602 55.0687 23.27 54.7687 23.27C54.5587 23.27 54.3487 23.3 54.1987 23.3902C54.0488 23.4804 53.8988 23.6007 53.8388 23.7811C53.7788 23.9614 53.7188 24.1418 53.7188 24.3824V26.0058H53.2988V22.9392H53.6888V23.7811L53.6288 23.6307C53.7188 23.4203 53.8688 23.2399 54.1088 23.1196C54.3187 22.9693 54.5587 22.9092 54.8587 22.9092Z" fill="black"/>
<path d="M59.9588 26.036C59.6589 26.036 59.3589 25.9759 59.0889 25.8857C58.819 25.7955 58.609 25.6452 58.459 25.4948L58.639 25.1641C58.789 25.3144 58.9689 25.4347 59.2089 25.5249C59.4489 25.6151 59.7189 25.6752 59.9888 25.6752C60.2588 25.6752 60.4388 25.6452 60.6188 25.585C60.7688 25.5249 60.8888 25.4347 60.9788 25.3144C61.0687 25.1942 61.0987 25.0739 61.0987 24.9537C61.0987 24.8033 61.0387 24.653 60.9488 24.5628C60.8588 24.4726 60.7388 24.3824 60.5888 24.3223C60.4388 24.2622 60.2888 24.2021 60.1088 24.172C59.9288 24.1419 59.7489 24.0818 59.5689 24.0217C59.3889 23.9615 59.2389 23.9014 59.0889 23.8112C58.9389 23.721 58.819 23.6308 58.729 23.4805C58.639 23.3302 58.579 23.1799 58.579 22.9393C58.579 22.7289 58.639 22.5485 58.729 22.3681C58.849 22.1877 58.9989 22.0675 59.2089 21.9472C59.4189 21.857 59.7189 21.7969 60.0488 21.7969C60.2888 21.7969 60.4988 21.8269 60.7388 21.8871C60.9788 21.9472 61.1587 22.0374 61.3087 22.1577L61.1587 22.4884C60.9787 22.3681 60.7988 22.2779 60.5888 22.2178C60.3788 22.1577 60.1988 22.1276 60.0188 22.1276C59.7789 22.1276 59.5689 22.1577 59.4189 22.2178C59.2689 22.2779 59.1489 22.3681 59.0589 22.4884C58.9689 22.6086 58.9389 22.7289 58.9389 22.8792C58.9389 23.0295 58.9989 23.1799 59.0889 23.27C59.1789 23.3602 59.2989 23.4504 59.4489 23.5106C59.5989 23.5707 59.7489 23.6008 59.9289 23.6609C60.1088 23.721 60.2888 23.7511 60.4688 23.8112C60.6488 23.8713 60.7988 23.9315 60.9488 24.0217C61.0987 24.1119 61.2187 24.2021 61.3087 24.3524C61.3987 24.5027 61.4587 24.653 61.4587 24.8635C61.4587 25.0739 61.3987 25.2543 61.3087 25.4046C61.1887 25.585 61.0387 25.7053 60.7988 25.8255C60.5588 25.9458 60.3188 26.036 59.9588 26.036Z" fill="black"/>
<path d="M62.3281 27.1182V22.9392H62.7181V23.8713L62.6881 24.4725L62.7481 25.1039V27.1182H62.3281ZM63.918 26.0359C63.648 26.0359 63.408 25.9758 63.198 25.8555C62.9881 25.7353 62.8081 25.5549 62.6881 25.3144C62.5681 25.0738 62.5081 24.8033 62.5081 24.4725C62.5081 24.1418 62.5681 23.8412 62.6881 23.6307C62.8081 23.3902 62.9881 23.2098 63.198 23.0896C63.408 22.9693 63.648 22.9092 63.918 22.9092C64.2179 22.9092 64.4579 22.9693 64.6979 23.0896C64.9379 23.2098 65.1179 23.3902 65.2379 23.6307C65.3578 23.8713 65.4478 24.1418 65.4478 24.4425C65.4478 24.7431 65.3878 25.0137 65.2379 25.2542C65.1179 25.4947 64.9379 25.6751 64.6979 25.7954C64.4579 25.9157 64.2179 26.0359 63.918 26.0359ZM63.888 25.6451C64.098 25.6451 64.3079 25.5849 64.4579 25.4947C64.6379 25.4046 64.7579 25.2542 64.8779 25.0738C64.9679 24.8935 65.0279 24.683 65.0279 24.4425C65.0279 24.202 64.9679 23.9915 64.8779 23.8111C64.7879 23.6307 64.6379 23.4804 64.4579 23.3902C64.2779 23.3 64.098 23.2399 63.888 23.2399C63.678 23.2399 63.468 23.3 63.318 23.3902C63.138 23.4804 63.0181 23.6307 62.8981 23.8111C62.8081 23.9915 62.7481 24.202 62.7481 24.4425C62.7481 24.683 62.8081 24.8935 62.8981 25.0738C62.9881 25.2542 63.138 25.4046 63.318 25.4947C63.468 25.615 63.678 25.6451 63.888 25.6451Z" fill="black"/>
<path d="M66.4982 22.2478C66.4082 22.2478 66.3482 22.2177 66.2882 22.1576C66.2282 22.0975 66.1982 22.0373 66.1982 21.9471C66.1982 21.8569 66.2282 21.7968 66.2882 21.7367C66.3482 21.6765 66.4082 21.6465 66.4982 21.6465C66.5882 21.6465 66.6482 21.6765 66.7082 21.7367C66.7682 21.7968 66.7982 21.8569 66.7982 21.9471C66.7982 22.0373 66.7682 22.0975 66.7082 22.1576C66.6482 22.2177 66.5882 22.2478 66.4982 22.2478ZM66.2882 26.0059V22.9393H66.7082V26.0059H66.2882Z" fill="black"/>
<path d="M67.8477 26.0058V22.9392H68.2376V23.7811L68.2076 23.6307C68.2976 23.3902 68.4476 23.2098 68.6276 23.0896C68.8376 22.9693 69.0775 22.9092 69.3775 22.9092V23.3C69.3475 23.3 69.3475 23.3 69.3175 23.3C69.2875 23.3 69.2875 23.3 69.2575 23.3C68.9276 23.3 68.6876 23.3902 68.5076 23.6007C68.3276 23.8111 68.2376 24.0817 68.2376 24.4425V26.0058H67.8477Z" fill="black"/>
<path d="M70.3371 22.2478C70.2471 22.2478 70.1871 22.2177 70.1271 22.1576C70.0671 22.0975 70.0371 22.0373 70.0371 21.9471C70.0371 21.8569 70.0671 21.7968 70.1271 21.7367C70.1871 21.6765 70.2471 21.6465 70.3371 21.6465C70.4271 21.6465 70.4871 21.6765 70.5471 21.7367C70.6071 21.7968 70.6371 21.8569 70.6371 21.9471C70.6371 22.0373 70.6071 22.0975 70.5471 22.1576C70.5171 22.2177 70.4271 22.2478 70.3371 22.2478ZM70.1271 26.0059V22.9393H70.5471V26.0059H70.1271Z" fill="black"/>
<path d="M71.207 23.2702V22.9395H73.0969V23.2702H71.207ZM72.6769 26.0362C72.3769 26.0362 72.1669 25.946 72.017 25.7957C71.867 25.6454 71.777 25.4349 71.777 25.1343V22.248H72.1969V25.1042C72.1969 25.2846 72.2569 25.4349 72.3469 25.5251C72.4369 25.6153 72.5569 25.6754 72.7369 25.6754C72.9169 25.6754 73.0669 25.6153 73.1868 25.5251L73.3368 25.8257C73.2468 25.8859 73.1569 25.946 73.0369 25.9761C72.9169 26.0061 72.7969 26.0362 72.6769 26.0362Z" fill="black"/>
<path d="M75.3172 26.0361C75.0472 26.0361 74.8373 25.976 74.6273 25.8858C74.4173 25.7956 74.2973 25.6453 74.1773 25.4348C74.0573 25.2544 74.0273 24.9839 74.0273 24.7133V22.9395H74.4473V24.6832C74.4473 25.0139 74.5373 25.2544 74.6873 25.4348C74.8373 25.5852 75.0772 25.6753 75.3772 25.6753C75.5872 25.6753 75.7672 25.6453 75.9472 25.5551C76.1271 25.4649 76.2171 25.3446 76.3071 25.1642C76.3971 24.9839 76.4271 24.8035 76.4271 24.5629V22.9695H76.8471V26.0361H76.4571V25.1943L76.5171 25.3446C76.4271 25.5852 76.2771 25.7355 76.0672 25.8858C75.8272 25.976 75.5872 26.0361 75.3172 26.0361Z" fill="black"/>
<path d="M78.8267 26.0357C78.5867 26.0357 78.4067 26.0056 78.2268 25.9154C78.0468 25.8253 77.9268 25.7351 77.8368 25.6148C77.7468 25.4945 77.7168 25.3142 77.7168 25.1638C77.7168 25.0135 77.7468 24.8632 77.8368 24.7429C77.9268 24.6227 78.0468 24.5024 78.1968 24.4423C78.3767 24.3521 78.5867 24.322 78.8867 24.322H79.9366V24.6227H78.8867C78.5867 24.6227 78.3767 24.6828 78.2867 24.773C78.1668 24.8632 78.1068 25.0135 78.1068 25.1638C78.1068 25.3442 78.1668 25.4645 78.3167 25.5847C78.4667 25.6749 78.6467 25.7351 78.8867 25.7351C79.1267 25.7351 79.3066 25.6749 79.4866 25.5847C79.6666 25.4645 79.7866 25.3142 79.8466 25.1338L79.9366 25.4344C79.8466 25.6449 79.7266 25.7952 79.5466 25.9154C79.3666 25.9756 79.1267 26.0357 78.8267 26.0357ZM79.8766 26.0056V25.3142L79.8466 25.1939V24.0514C79.8466 23.7808 79.7866 23.6005 79.6366 23.4501C79.4866 23.2998 79.2767 23.2397 78.9767 23.2397C78.7667 23.2397 78.5867 23.2697 78.4067 23.3299C78.2268 23.39 78.0768 23.4802 77.9568 23.6005L77.7768 23.2998C77.9268 23.1796 78.1068 23.0593 78.3467 22.9992C78.5567 22.939 78.7967 22.8789 79.0367 22.8789C79.4266 22.8789 79.7266 22.9691 79.9666 23.1796C80.1766 23.39 80.2966 23.6606 80.2966 24.0815V25.9756H79.8766V26.0056Z" fill="black"/>
<path d="M81.4062 26.0061V21.6768H81.8262V26.0061H81.4062Z" fill="black"/>
<path d="M85.0064 26.0359C84.7664 26.0359 84.5564 25.9757 84.3764 25.8855C84.1665 25.7953 84.0165 25.645 83.8965 25.4646L84.1365 25.164C84.2564 25.3143 84.3764 25.4646 84.5264 25.5248C84.6764 25.615 84.8264 25.645 85.0064 25.645C85.5163 25.645 85.7563 25.3444 85.7563 24.7431V22.2778H84.2565V21.917H86.1763V24.7431C86.1763 25.164 86.0863 25.4947 85.8763 25.7052C85.6963 25.9156 85.4263 26.0359 85.0064 26.0359Z" fill="black"/>
<path d="M88.6653 26.0359C88.3653 26.0359 88.0954 25.9758 87.8854 25.8255C87.6454 25.7052 87.4654 25.4947 87.3154 25.2843C87.1655 25.0438 87.1055 24.7732 87.1055 24.4725C87.1055 24.1719 87.1655 23.9013 87.3154 23.6608C87.4654 23.4203 87.6454 23.2399 87.8554 23.1196C88.0954 22.9994 88.3653 22.9092 88.6653 22.9092C88.9653 22.9092 89.2353 22.9693 89.4752 23.1196C89.7152 23.2399 89.8952 23.4203 90.0152 23.6608C90.1352 23.9013 90.2252 24.1719 90.2252 24.4725C90.2252 24.7732 90.1652 25.0438 90.0152 25.2843C89.8952 25.5248 89.6852 25.7052 89.4452 25.8255C89.2353 25.9457 88.9653 26.0359 88.6653 26.0359ZM88.6653 25.6451C88.8753 25.6451 89.0853 25.5849 89.2653 25.4947C89.4452 25.4046 89.5652 25.2542 89.6552 25.0738C89.7452 24.8935 89.8052 24.683 89.8052 24.4425C89.8052 24.202 89.7452 23.9915 89.6552 23.8111C89.5652 23.6307 89.4152 23.4804 89.2653 23.3902C89.0853 23.3 88.9053 23.2399 88.6953 23.2399C88.4853 23.2399 88.2754 23.3 88.1254 23.3902C87.9754 23.4804 87.8254 23.6307 87.7054 23.8111C87.6154 23.9915 87.5554 24.202 87.5554 24.4425C87.5554 24.683 87.6154 24.8935 87.7054 25.0738C87.7954 25.2542 87.9454 25.4046 88.1254 25.4947C88.3054 25.5849 88.4553 25.6451 88.6653 25.6451Z" fill="black"/>
<path d="M92.325 26.0361C92.0551 26.0361 91.8451 25.976 91.6351 25.8858C91.4251 25.7956 91.3051 25.6453 91.1851 25.4348C91.0652 25.2544 91.0352 24.9839 91.0352 24.7133V22.9395H91.4551V24.6832C91.4551 25.0139 91.5451 25.2544 91.6951 25.4348C91.8451 25.5852 92.0851 25.6753 92.385 25.6753C92.595 25.6753 92.775 25.6453 92.955 25.5551C93.135 25.4649 93.225 25.3446 93.3149 25.1642C93.4049 24.9839 93.4349 24.8035 93.4349 24.5629V22.9695H93.8549V26.0361H93.4649V25.1943L93.4949 25.3146C93.4049 25.5551 93.255 25.7054 93.045 25.8557C92.835 25.976 92.595 26.0361 92.325 26.0361Z" fill="black"/>
<path d="M94.9648 26.0058V22.9392H95.3548V23.7811L95.3248 23.6307C95.4148 23.3902 95.5648 23.2098 95.7448 23.0896C95.9548 22.9693 96.1947 22.9092 96.4947 22.9092V23.3C96.4647 23.3 96.4647 23.3 96.4347 23.3C96.4047 23.3 96.4047 23.3 96.3747 23.3C96.0447 23.3 95.8048 23.3902 95.6248 23.6007C95.4448 23.8111 95.3548 24.0817 95.3548 24.4425V26.0058H94.9648Z" fill="black"/>
<path d="M98.805 22.9092C99.045 22.9092 99.2849 22.9693 99.4649 23.0595C99.6449 23.1497 99.7949 23.3 99.9149 23.4804C100.035 23.6608 100.065 23.9314 100.065 24.202V25.9758H99.6449V24.232C99.6449 23.9013 99.5549 23.6608 99.4049 23.5105C99.2549 23.3602 99.015 23.27 98.715 23.27C98.505 23.27 98.295 23.3 98.145 23.3902C97.995 23.4804 97.8451 23.6007 97.7851 23.7811C97.7251 23.9614 97.6651 24.1418 97.6651 24.3824V26.0058H97.2451V22.9392H97.6351V23.7811L97.5751 23.6307C97.6651 23.4203 97.8151 23.2399 98.055 23.1196C98.265 22.9693 98.535 22.9092 98.805 22.9092Z" fill="black"/>
<path d="M102.495 26.0359C102.165 26.0359 101.895 25.9758 101.655 25.8255C101.415 25.6751 101.235 25.4947 101.085 25.2843C100.935 25.0438 100.875 24.7732 100.875 24.4725C100.875 24.1719 100.935 23.9013 101.055 23.6608C101.175 23.4203 101.355 23.2399 101.595 23.1196C101.835 22.9994 102.075 22.9092 102.375 22.9092C102.675 22.9092 102.915 22.9693 103.155 23.0896C103.365 23.2098 103.545 23.3902 103.695 23.6307C103.845 23.8713 103.875 24.1418 103.875 24.4425C103.875 24.4725 103.875 24.4725 103.875 24.5026C103.875 24.5327 103.875 24.5327 103.875 24.5627H101.205V24.2621H103.635L103.485 24.3824C103.485 24.1719 103.425 23.9614 103.335 23.7811C103.245 23.6007 103.125 23.4804 102.945 23.3902C102.795 23.3 102.585 23.2399 102.375 23.2399C102.165 23.2399 101.985 23.3 101.805 23.3902C101.625 23.4804 101.505 23.6307 101.415 23.8111C101.325 23.9915 101.265 24.1719 101.265 24.4124V24.4725C101.265 24.7131 101.325 24.9235 101.415 25.0738C101.505 25.2542 101.655 25.3745 101.835 25.4947C102.015 25.615 102.225 25.6451 102.465 25.6451C102.645 25.6451 102.825 25.615 102.975 25.5549C103.125 25.4947 103.275 25.3745 103.395 25.2542L103.635 25.5248C103.485 25.6751 103.335 25.8255 103.125 25.8856C102.945 25.9758 102.735 26.0359 102.495 26.0359Z" fill="black"/>
<path d="M104.685 27.1485C104.535 27.1485 104.415 27.1185 104.265 27.0884C104.145 27.0283 104.025 26.9681 103.935 26.8779L104.115 26.5773C104.205 26.6374 104.265 26.6975 104.355 26.7577C104.445 26.8178 104.535 26.8178 104.655 26.8178C104.804 26.8178 104.894 26.7877 105.014 26.6975C105.134 26.6074 105.194 26.4871 105.284 26.3067L105.494 25.8557L105.554 25.7956L106.814 22.9695H107.234L105.704 26.3969C105.614 26.6074 105.524 26.7577 105.434 26.8779C105.344 26.9982 105.224 27.0884 105.104 27.1185C104.954 27.1485 104.834 27.1485 104.685 27.1485ZM105.494 26.0963L104.085 22.9395H104.505L105.764 25.7655L105.494 26.0963Z" fill="black"/>
<path d="M108.584 26.0355C108.344 26.0355 108.104 26.0054 107.864 25.9152C107.624 25.825 107.474 25.7649 107.324 25.6447L107.504 25.3139C107.624 25.4041 107.774 25.4943 107.984 25.5545C108.194 25.6146 108.374 25.6447 108.584 25.6447C108.884 25.6447 109.094 25.5845 109.214 25.4943C109.334 25.4041 109.394 25.2839 109.394 25.1336C109.394 25.0133 109.364 24.9231 109.274 24.863C109.214 24.8028 109.094 24.7427 109.004 24.7126C108.884 24.6826 108.764 24.6525 108.614 24.6225C108.464 24.5924 108.314 24.5623 108.194 24.5323C108.044 24.5022 107.924 24.4421 107.804 24.3819C107.684 24.3218 107.594 24.2316 107.534 24.1414C107.474 24.0512 107.414 23.9009 107.414 23.7205C107.414 23.5401 107.474 23.3898 107.564 23.2695C107.654 23.1493 107.804 23.029 107.984 22.9689C108.164 22.8787 108.374 22.8486 108.644 22.8486C108.854 22.8486 109.034 22.8787 109.244 22.9388C109.454 22.999 109.604 23.0591 109.724 23.1493L109.544 23.48C109.394 23.3898 109.274 23.3297 109.094 23.2695C108.944 23.2395 108.794 23.2094 108.614 23.2094C108.344 23.2094 108.134 23.2695 108.014 23.3597C107.894 23.4499 107.834 23.5702 107.834 23.7205C107.834 23.8408 107.864 23.931 107.954 23.9911C108.044 24.0512 108.134 24.1114 108.254 24.1414C108.374 24.1715 108.494 24.2015 108.644 24.2316C108.794 24.2617 108.914 24.2917 109.064 24.3218C109.214 24.3519 109.334 24.412 109.454 24.4421C109.574 24.4721 109.664 24.5924 109.754 24.6826C109.844 24.7728 109.874 24.9231 109.874 25.0734C109.874 25.2538 109.814 25.4041 109.724 25.5244C109.634 25.6447 109.484 25.7649 109.304 25.825C109.124 25.8852 108.854 26.0355 108.584 26.0355Z" fill="black"/>
</g>
<defs>
<clipPath id="clip0_2697_1995">
<rect width="109.22" height="33.883" fill="white" transform="translate(0.803711 0.0595703)"/>
</clipPath>
</defs>
</svg>
